<svg width="900" height="900" viewBox="0 0 900 900" fill="none" xmlns="http://www.w3.org/2000/svg">
<rect width="900" height="900" rx="450" fill="#307353"/>
<g clip-path="url(#clip0)">
<path d="M660.208 261.125L617.541 218.458C613.374 214.291 606.624 214.291 602.458 218.458C598.291 222.625 598.291 229.375 602.458 233.541L637.583 268.666L602.458 303.791C600.458 305.791 599.333 308.499 599.333 311.333V343.333C599.333 366.865 618.469 386 642 386V567.333C642 573.218 637.219 578 631.333 578C625.448 578 620.666 573.219 620.666 567.333V546C620.666 528.354 606.312 514 588.666 514H578V236.667C578 213.135 558.865 194 535.333 194H322C298.469 194 279.333 213.135 279.333 236.667V620.667C255.802 620.667 236.666 639.802 236.666 663.334V695.334C236.666 701.23 241.437 706.001 247.333 706.001H610C615.896 706.001 620.667 701.23 620.667 695.334V663.334C620.667 639.803 601.532 620.667 578 620.667V535.334H588.667C594.552 535.334 599.334 540.115 599.334 546.001V567.334C599.334 584.98 613.688 599.334 631.334 599.334C648.98 599.334 663.334 584.98 663.334 567.334V268.667C663.333 265.833 662.208 263.125 660.208 261.125ZM535.333 375.531C535.333 381.427 530.562 386.198 524.666 386.198H332.666C326.77 386.198 321.999 381.427 321.999 375.531V247.333C321.999 241.437 326.77 236.666 332.666 236.666H524.666C530.562 236.666 535.333 241.437 535.333 247.333V375.531Z" fill="white"/>
</g>
<defs>
<clipPath id="clip0">
<rect width="512" height="512" fill="white" transform="translate(194 194)"/>
</clipPath>
</defs>
</svg>
